<svg width="64" height="64" xmlns="http://www.w3.org/2000/svg">
 <defs>
  <linearGradient y2="0.97001" y1="0.09857" x2="0.69385" x1="0.18424" id="a">
   <stop stop-color="#86c3db" offset="0"/>
   <stop stop-color="#86c3db" offset="0.45"/>
   <stop stop-color="#5eafcf" offset="1"/>
  </linearGradient>
  <linearGradient y2="1.19624" y1="0.1269" x2="0.66712" x1="0.27977" id="c">
   <stop stop-color="#f3f7fe" offset="0"/>
   <stop stop-color="#f3f7fe" offset="0.45"/>
   <stop stop-color="#deeafb" offset="1"/>
  </linearGradient>
 </defs>
 <g>
  <title>Layer 1</title>
  <path id="svg_1" d="m29.33,26.68a10.61,10.61 0 0 1 -10.68,-10.54a10.5,10.5 0 0 1 0.35,-2.64a10.54,10.54 0 1 0 11.5,13.11a11.48,11.48 0 0 1 -1.17,0.07z" stroke-width="0.5" stroke-linejoin="round" stroke-linecap="round" stroke="#72b9d5" fill="url(#a)"/>
  <path id="svg_3" d="m46.5,31.5l-0.32,0a10.49,10.49 0 0 0 -19.11,-8a7,7 0 0 0 -10.57,6a7.21,7.21 0 0 0 0.1,1.14a7.5,7.5 0 0 0 1.4,14.86a4.19,4.19 0 0 0 0.5,0l0,0l28,0a7,7 0 0 0 0,-14z" stroke-width="0.5" stroke-miterlimit="10" stroke="#e6effc" fill="url(#c)"/>
 </g>
</svg>